<?xml version="1.0" encoding="UTF-8" standalone="no"?>
<svg
   xmlns:dc="http://purl.org/dc/elements/1.1/"
   xmlns:cc="http://creativecommons.org/ns#"
   xmlns:rdf="http://www.w3.org/1999/02/22-rdf-syntax-ns#"
   xmlns:svg="http://www.w3.org/2000/svg"
   xmlns="http://www.w3.org/2000/svg"
   xmlns:sodipodi="http://sodipodi.sourceforge.net/DTD/sodipodi-0.dtd"
   xmlns:inkscape="http://www.inkscape.org/namespaces/inkscape"
   width="32"
   height="32"
   viewBox="0 0 8.4666659 8.4666668"
   version="1.1"
   id="svg8"
   inkscape:version="1.0 (4035a4fb49, 2020-05-01)"
   sodipodi:docname="erwin_icon.svg">
  <defs
     id="defs2">
    <inkscape:path-effect
       effect="bspline"
       id="path-effect951"
       is_visible="true"
       lpeversion="1"
       weight="33.333333"
       steps="2"
       helper_size="0"
       apply_no_weight="true"
       apply_with_weight="true"
       only_selected="false" />
    <inkscape:path-effect
       effect="bspline"
       id="path-effect947"
       is_visible="true"
       lpeversion="1"
       weight="33.333333"
       steps="2"
       helper_size="0"
       apply_no_weight="true"
       apply_with_weight="true"
       only_selected="false" />
    <inkscape:path-effect
       effect="bspline"
       id="path-effect917"
       is_visible="true"
       lpeversion="1"
       weight="33.333333"
       steps="2"
       helper_size="0"
       apply_no_weight="true"
       apply_with_weight="true"
       only_selected="false" />
    <inkscape:path-effect
       effect="bspline"
       id="path-effect913"
       is_visible="true"
       lpeversion="1"
       weight="33.333333"
       steps="2"
       helper_size="0"
       apply_no_weight="true"
       apply_with_weight="true"
       only_selected="false" />
    <inkscape:path-effect
       effect="bspline"
       id="path-effect909"
       is_visible="true"
       lpeversion="1"
       weight="33.333333"
       steps="2"
       helper_size="0"
       apply_no_weight="true"
       apply_with_weight="true"
       only_selected="false" />
    <inkscape:path-effect
       effect="bspline"
       id="path-effect905"
       is_visible="true"
       lpeversion="1"
       weight="33.333333"
       steps="2"
       helper_size="0"
       apply_no_weight="true"
       apply_with_weight="true"
       only_selected="false" />
    <inkscape:path-effect
       effect="bspline"
       id="path-effect901"
       is_visible="true"
       lpeversion="1"
       weight="33.333333"
       steps="2"
       helper_size="0"
       apply_no_weight="true"
       apply_with_weight="true"
       only_selected="false" />
    <inkscape:path-effect
       effect="bspline"
       id="path-effect897"
       is_visible="true"
       lpeversion="1"
       weight="33.333333"
       steps="2"
       helper_size="0"
       apply_no_weight="true"
       apply_with_weight="true"
       only_selected="false" />
    <inkscape:path-effect
       effect="spiro"
       id="path-effect893"
       is_visible="true"
       lpeversion="1" />
    <inkscape:path-effect
       effect="spiro"
       id="path-effect889"
       is_visible="true"
       lpeversion="1" />
    <inkscape:path-effect
       effect="spiro"
       id="path-effect885"
       is_visible="true"
       lpeversion="1" />
  </defs>
  <sodipodi:namedview
     units="px"
     id="base"
     pagecolor="#ffffff"
     bordercolor="#666666"
     borderopacity="1.0"
     inkscape:pageopacity="0.0"
     inkscape:pageshadow="2"
     inkscape:zoom="15.839192"
     inkscape:cx="24.05222"
     inkscape:cy="25.740593"
     inkscape:document-units="mm"
     inkscape:current-layer="layer1"
     inkscape:document-rotation="0"
     showgrid="false"
     fit-margin-top="0"
     fit-margin-left="0"
     fit-margin-right="0"
     fit-margin-bottom="0"
     inkscape:window-width="3840"
     inkscape:window-height="2066"
     inkscape:window-x="-11"
     inkscape:window-y="-11"
     inkscape:window-maximized="1" />
  <metadata
     id="metadata5">
    <rdf:RDF>
      <cc:Work
         rdf:about="">
        <dc:format>image/svg+xml</dc:format>
        <dc:type
           rdf:resource="http://purl.org/dc/dcmitype/StillImage" />
        <dc:title></dc:title>
      </cc:Work>
    </rdf:RDF>
  </metadata>
  <g
     inkscape:label="Ebene 1"
     inkscape:groupmode="layer"
     id="layer1"
     transform="translate(-48.409951,-156.22886)">
    <rect
       y="156.22887"
       x="48.40995"
       height="8.4666662"
       width="8.4666662"
       id="rect852"
       style="fill:#241f31;stroke:none;stroke-width:0.2;stroke-linecap:round" />
    <g
       id="g1025"
       transform="matrix(0.54249276,0,0,0.54249276,21.524224,72.180284)"
       style="fill:none">
      <path
         inkscape:original-d="m 50.447122,157.2213 c 0.1339,1.4257 0.267536,2.85114 0.400905,4.27631 -0.200192,0.47913 -0.40064,0.95798 -0.601356,1.43657 0.133903,0.63505 0.267533,1.2698 0.400905,1.9043 0.39004,0.56822 0.779801,1.13616 1.169304,1.70384 0.679588,0.40118 1.358885,0.80207 2.03793,1.20271 0.790953,0.21186 1.581607,0.42345 2.372016,0.63477 0.924591,2.6e-4 1.848879,2.6e-4 2.77292,0 0.679591,-0.25587 1.358887,-0.512 2.037932,-0.7684 0.70186,-0.44519 1.425702,-0.91291 2.138156,-1.36976 0.23413,-0.41178 0.467987,-0.82381 0.701583,-1.23612 0.200721,-0.57883 0.401169,-1.1579 0.601355,-1.73725 -0.122235,-0.45633 -0.267004,-0.91291 -0.400904,-1.36975 -0.07769,-0.27815 -0.155641,-0.55655 -0.23386,-0.83522 0.145039,-1.31384 0.289806,-2.62789 0.434313,-3.94223 0.02254,-0.0554 0.04481,-0.1111 0.06682,-0.16704 -0.935199,0.51254 -1.870622,1.02479 -2.806332,1.5368 -0.200192,0.0225 -0.42291,0.0448 -0.634764,0.0668 -0.679059,-0.21133 -1.358355,-0.42292 -2.03793,-0.63477 -0.467466,-0.0109 -0.93518,-0.022 -1.403165,-0.0334 -0.667922,0.0337 -1.336085,0.0671 -2.004523,0.10023 -0.42292,0.15617 -0.846087,0.31208 -1.269529,0.46772 -0.222464,0.0448 -0.445185,0.0893 -0.668173,0.13363 -0.367239,-0.15564 -0.734727,-0.31154 -1.102487,-0.46772 -0.255873,-0.16678 -0.512003,-0.33382 -0.7684,-0.50113 -0.278146,-0.14451 -0.556547,-0.28928 -0.835218,-0.43431 -0.122237,0.0114 -0.244734,0.0225 -0.367498,0.0334 z"
         inkscape:path-effect="#path-effect917"
         id="path915"
         d="m 50.513953,157.93416 c 0.06683,0.71286 0.200466,2.1383 0.167015,3.09037 -0.03345,0.95208 -0.233901,1.43093 -0.267247,1.98783 -0.03335,0.55691 0.100285,1.19166 0.362061,1.79302 0.261777,0.60136 0.651539,1.1693 1.186137,1.65367 0.534598,0.48437 1.213893,0.88526 1.948893,1.19146 0.735,0.3062 1.525655,0.51778 2.38313,0.62354 0.857475,0.10575 1.781763,0.10575 2.583518,-0.0223 0.801755,-0.12809 1.481052,-0.38422 2.170557,-0.73643 0.689504,-0.35221 1.415166,-0.81709 1.888399,-1.25134 0.473233,-0.43425 0.707089,-0.84628 0.924246,-1.34181 0.217157,-0.49554 0.417604,-1.07461 0.451524,-1.59087 0.03392,-0.51626 -0.100593,-0.97584 -0.206389,-1.34333 -0.105797,-0.3675 -0.183748,-0.6459 -0.150394,-1.4422 0.03335,-0.79629 0.178122,-2.11034 0.261627,-2.79526 0.08351,-0.68492 0.105784,-0.74062 -0.350738,-0.51241 -0.456522,0.22821 -1.391942,0.74046 -1.959883,1.00716 -0.567941,0.2667 -0.790541,0.29013 -1.235956,0.19553 -0.445415,-0.0946 -1.124713,-0.30619 -1.698256,-0.4176 -0.573543,-0.11141 -1.041256,-0.12254 -1.60922,-0.11141 -0.567964,0.0111 -1.236127,0.0445 -1.781856,0.13918 -0.54573,0.0946 -0.968899,0.25054 -1.291823,0.35077 -0.322923,0.10023 -0.545636,0.14477 -0.840696,0.0892 -0.295059,-0.0556 -0.662546,-0.2115 -0.97437,-0.37294 -0.311824,-0.16145 -0.567954,-0.32849 -0.835221,-0.48441 -0.267268,-0.15593 -0.54567,-0.3007 -0.746162,-0.36761 -0.200492,-0.0669 -0.322986,-0.0558 -0.384357,-0.0502 -0.06137,0.006 -0.06137,0.006 0.0055,0.71846 z"
         style="fill:none;stroke:#f9f06b;stroke-width:0.5;stroke-linecap:butt;stroke-linejoin:miter;stroke-miterlimit:4;stroke-dasharray:none;stroke-opacity:1" />
      <path
         id="path919"
         d="m 54.85707,159.89399 -0.968851,1.5368 h 0.902033 l -1.00226,1.57021 v 0"
         style="fill:none;stroke:#33d17a;stroke-width:0.5;stroke-linecap:butt;stroke-linejoin:miter;stroke-miterlimit:4;stroke-dasharray:none;stroke-opacity:1" />
      <g
         style="fill:none;stroke:#ed333b;stroke-opacity:1"
         id="g966">
        <path
           style="fill:none;stroke:#ed333b;stroke-width:0.5;stroke-linecap:butt;stroke-linejoin:miter;stroke-miterlimit:4;stroke-dasharray:none;stroke-opacity:1"
           d="m 59.467469,160.59558 1.336347,1.36975 v 0"
           id="path921" />
        <path
           style="fill:none;stroke:#ed333b;stroke-width:0.5;stroke-linecap:butt;stroke-linejoin:miter;stroke-miterlimit:4;stroke-dasharray:none;stroke-opacity:1"
           d="m 60.770409,160.66239 -1.202713,1.23613"
           id="path925" />
      </g>
      <path
         id="path927"
         d="m 50.597628,164.27056 2.639287,0.0334 v 0"
         style="fill:none;stroke:#f9f06b;stroke-width:0.5;stroke-linecap:butt;stroke-linejoin:miter;stroke-miterlimit:4;stroke-dasharray:none;stroke-opacity:1" />
      <path
         id="path933"
         d="m 64.172856,164.30394 h -2.873148 v 0"
         style="fill:none;stroke:#f9f06b;stroke-width:0.5;stroke-linecap:butt;stroke-linejoin:miter;stroke-miterlimit:4;stroke-dasharray:none;stroke-opacity:1" />
      <path
         sodipodi:nodetypes="ccccccccccccc"
         inkscape:original-d="m 55.721943,164.76666 c 1.092858,-0.017 2.185452,-0.0342 3.277777,-0.0517 -0.01154,-0.004 -0.02336,-0.008 -0.03544,-0.0118 2.65e-4,0.37431 2.65e-4,0.74835 0,1.12212 -0.113916,0.25225 -0.228094,0.50423 -0.34254,0.75595 -0.235974,0.12233 -0.472204,0.24438 -0.708705,0.36617 -0.204478,-0.004 -0.40921,-0.0155 -0.614212,-0.0236 -0.137541,-0.004 -0.275344,-0.008 -0.413411,-0.0118 -0.149355,-0.0785 -0.298966,-0.15723 -0.448847,-0.23624 -0.157229,-0.16904 -0.314714,-0.33834 -0.472469,-0.5079 -0.06667,-0.15723 -0.133602,-0.31472 -0.2008,-0.47247 0.0022,-0.24385 0.0042,-0.48795 0.0059,-0.73233 2.65e-4,-0.10998 2.65e-4,-0.22023 0,-0.33073"
         inkscape:path-effect="#path-effect947"
         id="path945"
         d="m 55.721943,164.76666 c 1.092854,-0.0172 2.185448,-0.0345 2.725819,-0.045 0.540371,-0.0106 0.528531,-0.0145 0.522525,0.17066 -0.006,0.18516 -0.006,0.5592 -0.06312,0.87214 -0.05712,0.31294 -0.171296,0.56492 -0.346429,0.75185 -0.175133,0.18694 -0.411362,0.30899 -0.631695,0.36612 -0.220333,0.0571 -0.425204,0.0493 -0.596481,0.0434 -0.171277,-0.006 -0.309082,-0.01 -0.452768,-0.0511 -0.143687,-0.0413 -0.293292,-0.12001 -0.446878,-0.24398 -0.153585,-0.12397 -0.311073,-0.29327 -0.423344,-0.45664 -0.11227,-0.16337 -0.179204,-0.32086 -0.211755,-0.52169 -0.03255,-0.20083 -0.03059,-0.44493 -0.0296,-0.62211 9.84e-4,-0.17718 9.84e-4,-0.28743 9.84e-4,-0.39793"
         style="fill:#f9f06b;stroke:#f9f06b;stroke-width:0.264583px;stroke-linecap:butt;stroke-linejoin:miter;stroke-opacity:1" />
      <path
         style="fill:none;stroke:#f9f06b;stroke-width:0.438863;stroke-linecap:butt;stroke-linejoin:miter;stroke-miterlimit:4;stroke-dasharray:none;stroke-opacity:1"
         d="m 51.203594,165.58913 2.033321,0.0334 v 0"
         id="path927-0" />
      <path
         id="path927-0-4"
         d="m 61.303312,165.58913 2.033321,0.0334 v 0"
         style="fill:none;stroke:#f9f06b;stroke-width:0.438862;stroke-linecap:butt;stroke-linejoin:miter;stroke-miterlimit:4;stroke-dasharray:none;stroke-opacity:1" />
    </g>
  </g>
</svg>
